<svg width="24" height="24" viewBox="0 0 24 24" fill="none" xmlns="http://www.w3.org/2000/svg">
<path d="M10.64 17C10.7747 16.9995 10.9079 16.9718 11.0316 16.9185C11.1554 16.8652 11.2671 16.7875 11.36 16.69L15.22 12.69C15.4032 12.5031 15.5059 12.2518 15.5059 11.99C15.5059 11.7282 15.4032 11.4769 15.22 11.29L11.22 7.29C11.1268 7.19676 11.0161 7.1228 10.8942 7.07234C10.7724 7.02188 10.6419 6.99591 10.51 6.99591C10.3781 6.99591 10.2476 7.02188 10.1257 7.07234C10.0039 7.1228 9.89324 7.19676 9.8 7.29C9.70676 7.38324 9.6328 7.49393 9.58234 7.61575C9.53188 7.73757 9.5059 7.86814 9.50591 8C9.50591 8.13186 9.53188 8.26243 9.58234 8.38425C9.6328 8.50607 9.70676 8.61676 9.8 8.71L13.1 12L9.92 15.3C9.73375 15.4874 9.6292 15.7408 9.6292 16.005C9.6292 16.2692 9.73375 16.5226 9.92 16.71C10.0146 16.8039 10.1271 16.8779 10.2507 16.9277C10.3744 16.9775 10.5067 17.0021 10.64 17Z" fill="#6F7371"/>
</svg>
