<svg width="32" height="32" viewBox="0 0 32 32" fill="none" xmlns="http://www.w3.org/2000/svg">
<path d="M17.8133 22.6667C17.6337 22.666 17.4561 22.629 17.2911 22.558C17.1262 22.487 16.9772 22.3833 16.8533 22.2533L11.7066 16.92C11.4623 16.6708 11.3255 16.3357 11.3255 15.9867C11.3255 15.6377 11.4623 15.3026 11.7066 15.0533L17.04 9.72C17.1643 9.59569 17.3119 9.49707 17.4743 9.42979C17.6367 9.36251 17.8108 9.32788 17.9866 9.32788C18.1625 9.32788 18.3366 9.36251 18.499 9.42979C18.6614 9.49707 18.809 9.59569 18.9333 9.72C19.0576 9.84432 19.1562 9.99191 19.2235 10.1543C19.2908 10.3168 19.3254 10.4909 19.3254 10.6667C19.3254 10.8425 19.2908 11.0166 19.2235 11.179C19.1562 11.3414 19.0576 11.489 18.9333 11.6133L14.5333 16L18.7733 20.4C19.0217 20.6498 19.161 20.9878 19.161 21.34C19.161 21.6922 19.0217 22.0302 18.7733 22.28C18.6471 22.4052 18.4972 22.5039 18.3324 22.5703C18.1675 22.6367 17.991 22.6695 17.8133 22.6667Z" fill="white"/>
</svg>
