<svg width="28" height="24" viewBox="0 0 28 24" fill="none" xmlns="http://www.w3.org/2000/svg">
<path d="M11.3364 15.3021L11.5894 13.6862H5.63152L13.6268 23.7752C13.6971 23.8735 13.6409 24 13.5144 24H9.6362C9.55189 24 9.46758 23.9578 9.41138 23.8876L0.277893 12.3513C-0.382528 11.5222 0.207632 10.2998 1.27555 10.2998H12.1233L12.9243 5.28337C12.9383 5.15691 13.0929 5.12881 13.1772 5.21311L15.7486 8.45902C15.7908 8.51522 15.8189 8.59953 15.8048 8.68384L15.5519 10.2998H21.5097L13.5425 0.224824C13.4582 0.140515 13.5285 0 13.6409 0H17.491C17.5753 0 17.6596 0.0421546 17.7158 0.112412L26.8493 11.6487C27.5097 12.4778 26.9196 13.7002 25.8516 13.7002H15.0039L14.2029 18.7026C14.1889 18.829 14.0343 18.8571 13.95 18.7728L11.3786 15.5269C11.3505 15.4567 11.3224 15.3724 11.3364 15.3021Z" fill="white"/>
</svg>
