<svg width="207" height="48" viewBox="0 0 207 48" fill="none" xmlns="http://www.w3.org/2000/svg">
<g clip-path="url(#clip0)">
<path d="M0.21405 38.8918L5.13245 7.9241H27.5841L26.5366 13.389H10.233L9.32221 20.7666H22.6657L21.6638 26.0493H8.32031L7.40949 33.4269H23.7131L22.6657 38.8918H0.21405Z" fill="white"/>
<path d="M24.3507 38.8918L34.3241 28.0076L27.5385 16.7135H34.2786L38.3772 23.5446L44.6619 16.7135H51.2653L40.9731 27.9165L47.5309 38.8918H40.8364L36.9655 32.3795L30.9541 38.8918H24.3507Z" fill="white"/>
<path d="M53.77 16.7135H59.1893L59.2349 19.4004C61.1931 17.26 63.7434 16.2581 66.8402 16.2581C72.5328 16.2581 76.1305 19.8102 74.8554 27.7799C73.5802 35.7495 68.8895 39.3472 63.1514 39.3472C60.1002 39.3472 57.8687 38.2998 56.6391 36.1594L54.7263 48H48.806L53.77 16.7135ZM57.5954 30.1935C57.7776 33.2903 59.5537 34.6565 62.1495 34.6565C65.3374 34.6565 67.9787 32.6527 68.7529 27.7799C69.5271 22.907 67.5233 20.9032 64.3355 20.9032C61.6941 20.9032 59.4626 22.2239 58.3241 25.3662L57.5954 30.1935Z" fill="white"/>
<path d="M77.178 27.8254C78.4531 19.8558 83.918 16.2581 90.6581 16.2581C97.4437 16.2581 101.77 19.8558 100.495 27.8254C99.2197 35.795 93.7549 39.3472 86.9693 39.3472C80.2292 39.3472 75.9029 35.795 77.178 27.8254ZM87.8345 34.7021C91.0224 34.7021 93.7093 32.6527 94.3469 27.8254C95.0755 22.9526 92.9807 20.9488 89.7928 20.9488C86.6049 20.9488 84.0091 22.9526 83.2805 27.8254C82.6429 32.6527 84.6467 34.7021 87.8345 34.7021Z" fill="white"/>
<path d="M105.687 16.7135H111.151L110.969 20.5844C113.246 17.7609 116.298 16.4858 119.895 16.4858L118.802 22.4061C118.392 22.3605 117.983 22.315 117.618 22.315C114.066 22.315 110.742 24.5009 109.603 28.8273L108.055 38.8918H102.134L105.687 16.7135Z" fill="white"/>
<path d="M121.626 16.7135H125.315L126.271 10.4744H132.146L131.235 16.7135H136.973L136.153 20.9488H130.415L129.14 30.4213C128.73 33.3359 129.14 33.9279 131.554 33.9279H134.514L133.557 38.8918H129.413C124.723 38.8918 122.036 37.2979 122.855 32.1518L124.495 20.9488H120.806L121.626 16.7135Z" fill="white"/>
<path d="M136.654 33.1081C138.157 23.8634 152.366 28.1897 153.368 23.8634C153.504 21.5408 152.32 20.4933 149.542 20.4933C146.855 20.4933 145.398 21.2675 144.715 23.7723H139.022C139.933 19.4915 143.212 16.2581 150.362 16.2581C156.783 16.2581 159.971 18.6262 159.197 23.8634L157.967 32.1518C157.785 33.518 158.104 34.0645 158.924 34.0645H159.698L158.833 38.8918H156.556C153.869 38.8918 152.594 37.981 152.138 36.0683C150.362 38.0265 147.584 39.3472 143.622 39.3472C139.842 39.3472 135.835 38.1632 136.654 33.1081ZM146.172 35.4307C149.816 35.4307 151.91 32.926 152.457 29.4649L152.548 28.5085C149.087 30.2846 143.531 29.0095 143.03 32.7438C142.802 34.3833 143.804 35.4307 146.172 35.4307Z" fill="white"/>
<path d="M180.806 24.797L181.216 22.1784H171.561L184.518 38.5275C184.631 38.6869 184.54 38.8918 184.335 38.8918H178.051C177.914 38.8918 177.778 38.8235 177.687 38.7097L162.886 20.0152C161.816 18.6717 162.772 16.6907 164.502 16.6907H182.081L183.379 8.56167C183.402 8.35674 183.652 8.31119 183.789 8.44782L187.956 13.7078C188.024 13.7989 188.07 13.9355 188.047 14.0721L187.637 16.6907H197.292L184.381 0.364326C184.244 0.227704 184.358 0 184.54 0H190.78C190.916 0 191.053 0.0683112 191.144 0.182163L205.945 18.8767C207.015 20.2201 206.058 22.2011 204.328 22.2011H186.749L185.451 30.3074C185.428 30.5123 185.178 30.5579 185.041 30.4212L180.874 25.1613C180.829 25.0474 180.783 24.9108 180.806 24.797Z" fill="#034C8C"/>
</g>
<defs>
<clipPath id="clip0">
<path d="M0 0H206.186V48H0V0Z" fill="white"/>
</clipPath>
</defs>
</svg>
